<svg xmlns="http://www.w3.org/2000/svg" width="287" height="126" viewBox="0 0 287 126">
    <g fill="none" fill-rule="evenodd">
        <path fill="#5485F9" d="M226.935 56.326V78.88h35.462z"/>
        <g fill="#5485F9">
            <path d="M102.87 13.06h42.752v10.267H102.87zM113.13 31.884h6.84v8.556h-6.84zM128.522 31.884h6.84v8.556h-6.84zM113.13 54.13h6.84v8.556h-6.84zM128.522 54.13h6.84v8.556h-6.84zM113.13 78.086h6.84v8.556h-6.84zM113.13 102.043h6.84v8.556h-6.84zM128.522 78.086h6.84v8.556h-6.84zM128.522 102.043h6.84v8.556h-6.84z"/>
        </g>
        <path fill="#5485F9" d="M143.913 35.95h39.332v10.266h-39.332zM152.463 54.772h5.13v7.475h-5.13zM166.787 54.772h5.13v7.475h-5.13zM152.463 78.086h5.13v8.556h-5.13zM166.787 78.086h5.13v8.556h-5.13z"/>
        <path fill="#FFF" d="M155.883 100.975h11.97v20.535h-11.97z"/>
        <path fill="#464646" fill-rule="nonzero" d="M120.873 52.477h-6.589c-.964 0-1.607.64-1.607 1.601v9.449c0 .96.643 1.602 1.607 1.602h6.59c.963 0 1.606-.641 1.606-1.602v-9.449c0-.8-.803-1.601-1.607-1.601zm-1.607 9.448h-3.375V55.68h3.375v6.245zM135.015 52.477h-6.589c-.964 0-1.607.64-1.607 1.601v9.449c0 .96.643 1.602 1.607 1.602h6.59c.963 0 1.606-.641 1.606-1.602v-9.449c0-.8-.803-1.601-1.607-1.601zm-1.607 9.448h-3.375V55.68h3.375v6.245zM151.89 65.129h6.588c.964 0 1.607-.641 1.607-1.602v-9.449c0-.96-.643-1.601-1.607-1.601h-6.589c-.964 0-1.607.64-1.607 1.601v9.449c0 .8.804 1.602 1.607 1.602zm1.606-9.45h3.375v6.246h-3.375V55.68zM166.192 65.129h6.589c.964 0 1.607-.641 1.607-1.602v-9.449c0-.96-.643-1.601-1.607-1.601h-6.589c-.964 0-1.607.64-1.607 1.601v9.449c0 .8.643 1.602 1.607 1.602zm1.607-9.45h3.375v6.246h-3.375V55.68zM120.873 76.82h-6.589c-.964 0-1.607.64-1.607 1.601v9.45c0 .96.643 1.6 1.607 1.6h6.59c.963 0 1.606-.64 1.606-1.6v-9.45c0-.96-.803-1.601-1.607-1.601zm-1.607 9.288h-3.375v-6.245h3.375v6.245zM135.015 76.82h-6.589c-.964 0-1.607.64-1.607 1.601v9.45c0 .96.643 1.6 1.607 1.6h6.59c.963 0 1.606-.64 1.606-1.6v-9.45c0-.96-.803-1.601-1.607-1.601zm-1.607 9.288h-3.375v-6.245h3.375v6.245zM151.89 89.311h6.588c.964 0 1.607-.64 1.607-1.601v-9.449c0-.96-.643-1.602-1.607-1.602h-6.589c-.964 0-1.607.641-1.607 1.602v9.449c0 .96.804 1.601 1.607 1.601zm1.606-9.288h3.375v6.246h-3.375v-6.246zM166.192 89.311h6.589c.964 0 1.607-.64 1.607-1.601v-9.449c0-.96-.643-1.602-1.607-1.602h-6.589c-.964 0-1.607.641-1.607 1.602v9.449c0 .96.643 1.601 1.607 1.601zm1.607-9.288h3.375v6.246h-3.375v-6.246zM120.873 101.003h-6.589c-.964 0-1.607.64-1.607 1.601v9.45c0 .96.643 1.6 1.607 1.6h6.59c.963 0 1.606-.64 1.606-1.6v-9.45c0-.96-.803-1.601-1.607-1.601zm-1.607 9.288h-3.375v-6.246h3.375v6.246zM135.015 101.003h-6.589c-.964 0-1.607.64-1.607 1.601v9.45c0 .96.643 1.6 1.607 1.6h6.59c.963 0 1.606-.64 1.606-1.6v-9.45c0-.96-.803-1.601-1.607-1.601zm-1.607 9.288h-3.375v-6.246h3.375v6.246zM120.873 28.774h-6.589c-.964 0-1.607.64-1.607 1.602v9.449c0 .96.643 1.601 1.607 1.601h6.59c.963 0 1.606-.64 1.606-1.601v-9.45c0-.8-.803-1.601-1.607-1.601zm-1.607 9.449h-3.375v-6.246h3.375v6.246zM135.015 28.774h-6.589c-.964 0-1.607.64-1.607 1.602v9.449c0 .96.643 1.601 1.607 1.601h6.59c.963 0 1.606-.64 1.606-1.601v-9.45c0-.8-.803-1.601-1.607-1.601zm-1.607 9.449h-3.375v-6.246h3.375v6.246z"/>
        <path fill="#464646" fill-rule="nonzero" d="M209.422 121.822h-27.963v-74.79h.643c.964 0 1.607-.641 1.607-1.602v-9.61c0-.96-.643-1.6-1.607-1.6h-.643v-6.087c0-.96-.643-1.601-1.607-1.601h-33.105v-2.883c1.125 0 1.767-.64 1.767-1.601v-9.61c0-.96-.642-1.601-1.607-1.601l-.16-7.047c0-.96-.643-1.601-1.607-1.601H104.48c-.964 0-1.607.64-1.607 1.601v7.047c-1.125 0-1.768.64-1.768 1.602v9.609c0 .96.643 1.601 1.607 1.601l.161 98.333H81.34c-.965 0-1.607.641-1.607 1.602 0 .96.642 1.602 1.607 1.602h128.082c.964 0 1.607-.641 1.607-1.602 0-.96-.643-1.762-1.607-1.762zm-43.39 0h-7.393v-17.136h7.392v17.136zm1.606-20.339h-10.606c-.964 0-1.607.64-1.607 1.602v18.577h-8.678V96.84h31.498v24.983h-9v-18.737c0-.801-.803-1.602-1.607-1.602zm12.857-64.22v6.405h-33.748v-6.406h33.748zm-2.25 56.373h-31.498v-20.66h31.498v20.66zm0-23.863h-31.498V47.03h31.498v22.742zm0-40.038v4.484h-31.498v-4.484h31.498zm-73.764-9.449V13.88h40.82v6.406h-40.82zm1.607-15.054h37.284v5.445h-37.284V5.232zm0 18.257h37.284v98.333h-37.284V23.49z"/>
        <path fill="#5485F9" d="M29.874 65.136h22.405v16.017H29.874z"/>
        <path fill="#5485F9" fill-rule="nonzero" stroke="#464646" stroke-width="2" d="M84.81 61.624c.97 0 1.615-.644 1.615-1.61v-5.96c0-.967-.646-1.611-1.615-1.611-.97 0-1.616.644-1.616 1.61v5.96c0 .806.647 1.611 1.616 1.611zM76.894 61.624c.97 0 1.616-.644 1.616-1.61v-5.96c0-.967-.646-1.611-1.616-1.611-.969 0-1.615.644-1.615 1.61v5.96c0 .806.808 1.611 1.615 1.611zM69.14 61.624c.97 0 1.616-.644 1.616-1.61v-5.96c0-.967-.647-1.611-1.616-1.611-.969 0-1.615.644-1.615 1.61v5.96c0 .806.646 1.611 1.615 1.611zM84.81 86.108c.97 0 1.615-.645 1.615-1.611v-5.96c0-.966-.646-1.61-1.615-1.61-.97 0-1.616.644-1.616 1.61v5.96c0 .805.647 1.61 1.616 1.61zM76.894 86.108c.97 0 1.616-.645 1.616-1.611v-5.96c0-.966-.646-1.61-1.616-1.61-.969 0-1.615.644-1.615 1.61v5.96c0 .805.808 1.61 1.615 1.61zM69.14 86.108c.97 0 1.616-.645 1.616-1.611v-5.96c0-.966-.647-1.61-1.616-1.61-.969 0-1.615.644-1.615 1.61v5.96c0 .805.646 1.61 1.615 1.61zM84.81 110.43c.97 0 1.615-.644 1.615-1.61v-5.96c0-.967-.646-1.611-1.615-1.611-.97 0-1.616.644-1.616 1.61v5.96c0 .967.647 1.611 1.616 1.611zM76.894 110.43c.97 0 1.616-.644 1.616-1.61v-5.96c0-.967-.646-1.611-1.616-1.611-.969 0-1.615.644-1.615 1.61v5.96c0 .967.808 1.611 1.615 1.611zM69.14 110.43c.97 0 1.616-.644 1.616-1.61v-5.96c0-.967-.647-1.611-1.616-1.611-.969 0-1.615.644-1.615 1.61v5.96c0 .967.646 1.611 1.615 1.611z"/>
        <path fill="#464646" fill-rule="nonzero" d="M2.423 125.25h113.565c.969 0 1.615-.645 1.615-1.611 0-.967-.646-1.611-1.615-1.611H94.987V27.959c0-.483-.323-1.127-.808-1.45a1.47 1.47 0 0 0-1.615 0L58.155 44.55c-.484.322-.807.805-.807 1.45v33.826h-3.554V56.309c0-.967-.647-1.611-1.616-1.611H29.562c-.969 0-1.615.644-1.615 1.61v23.518h-4.362c-.969 0-1.615.644-1.615 1.61v40.592h-9.531v-8.054c4.038-.805 6.946-4.349 6.946-8.537 0-4.832-4.038-8.86-8.885-8.86-4.846 0-8.885 4.028-8.885 8.86 0 4.349 3.231 8.054 7.431 8.698v7.893H2.262c-.97 0-1.616.644-1.616 1.61 0 .967.97 1.611 1.777 1.611zm99.187-19.813c0-3.06 2.585-5.638 5.654-5.638 3.07 0 5.654 2.578 5.654 5.638s-2.584 5.638-5.654 5.638-5.654-2.578-5.654-5.638zm-96.764 0c0-3.06 2.585-5.638 5.654-5.638 3.07 0 5.654 2.578 5.654 5.638s-2.584 5.638-5.654 5.638c-3.069 0-5.654-2.578-5.654-5.638zm43.778 16.59H34.41v-15.14c0-4.027 3.23-7.249 7.107-7.249 3.877 0 7.108 3.222 7.108 7.249v15.14zm43.294-91.49v91.33h-31.34v-74.9l31.34-16.43zM50.563 57.918v4.994H31.178v-4.994h19.385zm-19.385 8.376h19.385v13.53H31.178v-13.53zM25.2 83.047h32.147v38.98h-5.493v-15.14c0-5.8-4.685-10.47-10.339-10.47-5.654 0-10.338 4.67-10.338 10.47v15.14H25.2v-38.98z"/>
        <path fill="#5485F9" fill-rule="nonzero" stroke="#464646" stroke-width="2" d="M201.398 18.456h12.866c1.003 0 1.67-.672 1.67-1.68 0-1.009-.667-1.681-1.67-1.681h-12.866c-1.002 0-1.67.672-1.67 1.68 0 1.009.835 1.681 1.67 1.681zM201.398 29.38h12.866c1.003 0 1.67-.672 1.67-1.68 0-1.009-.667-1.68-1.67-1.68h-12.866c-1.002 0-1.67.671-1.67 1.68 0 1.008.835 1.68 1.67 1.68zM201.398 40.473h12.866c1.003 0 1.67-.672 1.67-1.68 0-1.009-.667-1.681-1.67-1.681h-12.866c-1.002 0-1.67.672-1.67 1.68 0 1.009.835 1.681 1.67 1.681zM201.398 51.398h12.866c1.003 0 1.67-.673 1.67-1.68 0-1.01-.667-1.682-1.67-1.682h-12.866c-1.002 0-1.67.673-1.67 1.681s.835 1.68 1.67 1.68zM201.398 62.49h12.866c1.003 0 1.67-.672 1.67-1.68 0-1.009-.667-1.681-1.67-1.681h-12.866c-1.002 0-1.67.672-1.67 1.68 0 1.01.835 1.681 1.67 1.681zM201.398 73.415h12.866c1.003 0 1.67-.672 1.67-1.68 0-1.01-.667-1.681-1.67-1.681h-12.866c-1.002 0-1.67.672-1.67 1.68 0 1.009.835 1.68 1.67 1.68zM201.398 84.34h12.866c1.003 0 1.67-.673 1.67-1.681 0-1.009-.667-1.681-1.67-1.681h-12.866c-1.002 0-1.67.672-1.67 1.68 0 1.01.835 1.681 1.67 1.681z"/>
        <path fill="#464646" fill-rule="nonzero" d="M165.577 125.18h119.7c1.002 0 1.67-.672 1.67-1.68 0-1.009-.668-1.681-1.67-1.681h-7.019v-8.403c4.345-.673 7.854-4.538 7.854-9.076 0-3.362-1.671-6.219-4.345-7.9 2.507-1.68 4.345-4.537 4.345-7.899 0-5.042-4.178-9.244-9.19-9.244-5.013 0-9.19 4.202-9.19 9.244 0 3.362 1.67 6.219 4.344 7.9-2.506 1.68-4.344 4.537-4.344 7.899 0 4.37 3.175 8.235 7.352 9.076v8.403h-10.025V78.457c0-.168-.168-.168-.168-.336l-.334-.336c-1.67-1.345-8.02-5.547-36.258-22.522V2.321c0-1.008-.668-1.68-1.67-1.68h-36.593c-1.002 0-1.67.672-1.67 1.68V121.82h-22.789c-1.002 0-1.67.672-1.67 1.68 0 1.01.668 1.681 1.67 1.681zm111.178-42.353c3.174 0 5.848 2.689 5.848 5.882 0 3.194-2.674 5.883-5.848 5.883-3.175 0-5.848-2.69-5.848-5.883s2.673-5.882 5.848-5.882zm-5.848 21.513c0-3.194 2.673-5.883 5.848-5.883 3.174 0 5.848 2.69 5.848 5.883s-2.674 5.882-5.848 5.882c-3.175 0-5.848-2.689-5.848-5.882zm-55.14 17.479h-15.705V106.02h15.706v15.799zm36.092 0h-15.707V106.02h15.707v15.799zm3.341 0v-17.48c0-1.008-.668-1.68-1.67-1.68h-19.048c-1.003 0-1.671.672-1.671 1.68v17.48h-5.013V80.81h33.585v41.009H255.2zm2.507-44.37h-29.742v-18.32c9.858 5.882 23.058 13.95 29.742 18.32zM224.623 4.002v87.9h-32.916v-87.9h32.916zm-32.916 91.262h32.916v26.723h-5.513V104.34c0-1.009-.669-1.681-1.671-1.681h-19.215c-1.003 0-1.671.672-1.671 1.68v17.48h-4.846V95.264z"/>
        <g>
            <path fill="#FFF" d="M179.834 96.99l18.467-15.962 20.208 17.694-1.43 24.763-37.387-.134z"/>
            <path fill="#5485F9" d="M201.647 105.712h8.535v8.542h-8.535z"/>
            <path fill="#464646" fill-rule="nonzero" d="M223.396 99.476L199.55 79.214a1.78 1.78 0 0 0-2.293-.008l-24.211 20.261a1.755 1.755 0 0 0-.215 2.483 1.775 1.775 0 0 0 2.497.213l2.354-1.97v22.977c0 .974.794 1.762 1.773 1.762h37.817c.978 0 1.772-.788 1.772-1.762v-22.756l2.047 1.74a1.78 1.78 0 0 0 2.5-.195c.636-.74.55-1.851-.195-2.483zm-30.055 21.932h-4.734V107.67h4.734v13.74zm3.545 0v-15.5c0-.974-.794-1.762-1.773-1.762h-8.28c-.978 0-1.772.788-1.772 1.762v15.5h-3.834V97.226l17.161-14.361L215.5 97.402v24.006h-18.613z"/>
            <path fill="#464646" fill-rule="nonzero" d="M210.185 104.146h-8.28c-.978 0-1.773.788-1.773 1.762v8.229c0 .973.795 1.762 1.773 1.762h8.28c.978 0 1.772-.789 1.772-1.762v-8.23c0-.973-.794-1.761-1.772-1.761zm-1.773 8.229h-4.734v-4.706h4.734v4.706z"/>
        </g>
        <path fill="#FFF" d="M88.619 95.598l26.7-.087 4.292 4.537-.08 18.002-5.768.567-27.99.033-3.063-3.293 3.081-17.033z"/>
        <path fill="#5485F9" d="M103.491 102.508h8.535v6.407h-8.535z"/>
        <g fill="#464646" fill-rule="nonzero" stroke="#464646" stroke-width=".5">
            <path d="M113.313 118.665c0-2.872-2.36-5.2-5.272-5.2-2.912 0-5.272 2.328-5.272 5.2 0 2.871 2.36 5.2 5.272 5.2 2.911 0 5.272-2.329 5.272-5.2zm-7.908 0c0-1.436 1.18-2.6 2.636-2.6 1.456 0 2.636 1.164 2.636 2.6 0 1.436-1.18 2.6-2.636 2.6-1.456 0-2.636-1.164-2.636-2.6z"/>
            <path d="M86.295 117.365c-2.098 0-3.45-1.576-3.105-3.622l2.219-13.128c.374-2.211 2.57-4.049 4.837-4.049h22.41c2.209 0 4.123 1.788 4.246 3.965l.88 15.612c.038.686-.477 1.222-1.172 1.222h-4.615c-.728 0-1.318.582-1.318 1.3 0 .718.59 1.3 1.318 1.3h4.615c2.207 0 3.926-1.79 3.803-3.966l-.88-15.612c-.2-3.554-3.269-6.42-6.877-6.42h-22.41c-3.557 0-6.852 2.757-7.437 6.22l-2.219 13.13c-.613 3.628 1.978 6.648 5.705 6.648h17.792c.728 0 1.318-.582 1.318-1.3 0-.718-.59-1.3-1.318-1.3H86.295z"/>
            <path d="M77.069 114.765c-.728 0-1.318.582-1.318 1.3 0 .718.59 1.3 1.318 1.3h4.613c.728 0 1.318-.582 1.318-1.3 0-.718-.59-1.3-1.318-1.3h-4.613zM85.636 122.564c0 .718.59 1.3 1.318 1.3.727 0 1.317-.582 1.317-1.3v-3.9c0-.717-.59-1.3-1.317-1.3-.728 0-1.318.583-1.318 1.3v3.9zM110.677 104.366v3.9h-6.59v-3.9h6.59zm-9.226-1.3v6.5c0 .717.59 1.3 1.318 1.3h9.226c.728 0 1.318-.583 1.318-1.3v-6.5c0-.718-.59-1.3-1.318-1.3h-9.226c-.728 0-1.318.582-1.318 1.3zM90.907 104.366h5.272v13.649c0 .718.59 1.3 1.318 1.3.728 0 1.318-.582 1.318-1.3v-14.95c0-.717-.59-1.3-1.318-1.3H89.59c-.727 0-1.318.583-1.318 1.3v14.95c0 .718.59 1.3 1.318 1.3.728 0 1.318-.582 1.318-1.3v-13.65z"/>
        </g>
    </g>
</svg>
