<svg xmlns="http://www.w3.org/2000/svg" width="105" height="108" viewBox="0 0 105 108">
    <g fill="none" fill-rule="evenodd" stroke="#464646">
        <path fill="#5485F9" stroke-width="3.772" d="M64.268 17c-3.909 0-7.816 1.48-10.8 4.44l-1.198 1.184-1.194-1.185c-5.857-5.809-15.233-5.84-21.223-.25-.143.056-.273.14-.382.246a15.058 15.058 0 0 0 .005 21.42l1.997 1.984L51.466 64.67a1.146 1.146 0 0 0 1.607 0L73.066 44.84l2.002-1.979a15.049 15.049 0 0 0 .005-21.416 15.224 15.224 0 0 0-5.505-3.483 1.145 1.145 0 0 0-.568-.202A15.48 15.48 0 0 0 64.268 17z"/>
        <path fill="#464646" fill-rule="nonzero" d="M11.014 1.497C5.49 1.497 1 5.997 1 11.533v57.35c0 5.534 4.49 10.035 10.014 10.035h17.142l-2.772 27.062c-.15 1.19 1.636 2.036 2.459 1.165l28.253-28.227h37.89c5.523 0 10.014-4.5 10.014-10.036V11.533c0-5.535-4.49-10.036-10.014-10.036H11.014zm0 2.867h82.972c3.988 0 7.153 3.173 7.153 7.169v57.35c0 3.995-3.165 7.168-7.153 7.168h-38.47a1.42 1.42 0 0 0-1.03.403l-25.839 25.852 2.549-24.687c.074-.794-.635-1.572-1.43-1.568H11.013c-3.988 0-7.153-3.173-7.153-7.169V11.533c0-3.996 3.165-7.169 7.153-7.169z"/>
    </g>
</svg>
