<svg xmlns="http://www.w3.org/2000/svg" width="97" height="110" viewBox="0 0 97 110">
    <g fill="none" fill-rule="evenodd">
        <path d="M2.2 89.467V41.8S12.467 1.467 48.4 1.467c35.933 0 46.2 38.866 46.2 38.866l.733 49.867s-3.666 17.6-19.8 17.6C59.4 107.8 54.267 88 54.267 88L55 70.4l14.667-19.8S72.6 24.933 48.4 24.933 28.6 52.067 28.6 52.067L41.067 70.4 41.8 88s0 19.8-19.8 19.8S2.2 89.467 2.2 89.467z"/>
        <path fill="#5485F9" d="M2.933 44H26.4v7.333H2.933zM70.4 44h23.467v7.333H70.4zM52.8 1.467v23.467h-7.333V1.467zM54.267 79.2h41.067v7.333H54.267zM2.933 79.2H44v7.333H2.933z"/>
        <path fill="#464646" fill-rule="nonzero" stroke="#464646" d="M22.293 109.267c11.88 0 21.56-9.68 21.56-21.56v-3.52H52.8v3.52c0 11.88 9.68 21.56 21.56 21.56 11.88 0 21.56-9.68 21.56-21.56V48.253C96.067 22 74.653.587 48.4.587 22.147.587.733 22 .733 48.253v39.454c0 11.88 9.68 21.56 21.56 21.56zm0-2.934c-9.973 0-18.04-7.773-18.626-17.6h37.106c-.44 9.827-8.506 17.6-18.48 17.6zM25.96 44.88c0 1.907.147 3.667.587 5.427H3.667v-2.054c0-1.173 0-2.346.146-3.373H25.96zM3.667 85.8v-5.427H40.92V85.8H3.667zm37.253-8.36H3.667v-24.2h23.76c1.466 3.813 3.96 7.333 7.333 9.973 3.96 3.08 6.307 7.92 6.307 12.907v1.32h-.147zm2.933 3.667V76.12c0-6.013-2.786-11.733-7.48-15.253-4.986-3.814-7.773-9.974-7.626-16.28.44-9.974 8.8-18.334 18.773-18.774 5.427-.146 10.413 1.76 14.373 5.427 3.814 3.667 6.014 8.653 6.014 14.08 0 6.16-2.787 11.88-7.774 15.547-4.546 3.52-7.333 9.093-7.333 15.253v4.987h-8.947zm11.88 4.693v-5.427h37.254V85.8H55.733zm37.4-37.547v2.054h-22.88c.294-1.614.587-3.227.587-4.84v-.44h22.147c0 1.026.146 2.053.146 3.226zM69.52 53.24h23.613v24.2h-37.4v-1.32c0-5.133 2.347-9.973 6.16-12.907 3.52-2.493 6.16-6.013 7.627-9.973zm4.987 53.093c-9.974 0-18.04-7.773-18.627-17.6h37.107c-.44 9.827-8.654 17.6-18.48 17.6zm18.186-64.386h-22c-.733-4.84-2.933-9.24-6.6-12.76-2.786-2.787-6.306-4.547-9.973-5.574V3.96c19.8 2.493 35.64 18.187 38.573 37.987zM51.04 3.667v19.36c-.88-.147-1.76-.147-2.64-.147h-.88c-.587 0-1.173.147-1.907.147V3.667c.88 0 1.76-.147 2.787-.147.88 0 1.76.147 2.64.147zm-8.36.293v19.653c-8.507 2.2-15.107 9.387-16.573 18.334h-22C6.893 22.147 22.88 6.453 42.68 3.96z"/>
        <path fill="#464646" fill-rule="nonzero" d="M64.827 15.107c8.946 4.4 15.546 12.466 18.333 22 .147.586.733 1.026 1.467 1.026h.44c.733-.293 1.173-1.026 1.026-1.76-3.08-10.266-10.266-18.92-19.946-23.76-.734-.293-1.614 0-1.907.587-.44.733-.147 1.613.587 1.907z"/>
    </g>
</svg>
