<svg xmlns="http://www.w3.org/2000/svg" width="118" height="37" viewBox="0 0 118 37">
    <g fill="#5485F9" fill-rule="nonzero">
        <path d="M71.238 1.684L61.141 9.921h6.802l-5.47 19.5c5.89-1.408 12.131-3.52 18.863-6.336l5.96-21.4H71.238zM97.17 14.823a260.604 260.604 0 0 0 20.64-13.139h-15.975l-10.18 8.355h6.857l-1.343 4.784zM8.924 30.88L.112 36.72h48.64l.764-2.809c-16.93 3.105-30.461.887-40.592-3.03zM50.666 11.84C52.491 5.303 45.963.226 33.96.226c-12.846 0-22.813 5.147-24.849 12.242l-.28 1.252h16.495l.351-1.322c.421-1.46 1.614-4.312 5.335-4.312 2.948 0 3.44 1.808 3.018 3.13-1.263 4.52-8.844 8.973-14.53 12.52l-4.493 2.713c9.055 3.547 20.708 5.634 35.238 3.686l.632-2.156H30.029c9.196-4.173 18.742-9.668 20.637-16.137z"/>
        <path d="M97.392 15.642L91.655 36.72h16.595l9.56-35.036c-7.102 5.358-13.93 10.01-20.418 13.958zM59.688 36.72h16.987l3.356-11.679c-6.711 2.92-13.003 5.093-18.945 6.722l-1.398 4.957zM84.39 20.662c1.887-.947 3.85-1.894 5.812-2.92h-4.906l-.906 2.92zM59.688 17.742h-6.652l-2.067 7.3h6.846zM83.653 22.535l-.716 2.506h6.897l1.821-7.299c-2.732 1.77-5.4 3.318-8.002 4.793zM116.357 33.8a1.45 1.45 0 0 1 1.454 1.46 1.45 1.45 0 0 1-1.454 1.46 1.45 1.45 0 0 1-1.453-1.46c0-.811.646-1.46 1.453-1.46zm0 .217c-.645 0-1.184.54-1.184 1.243 0 .703.539 1.244 1.184 1.244.646 0 1.184-.541 1.184-1.244-.053-.703-.538-1.243-1.184-1.243zm-.269 2.054h-.269V34.45c.162 0 .27-.054.485-.054.269 0 .43.054.484.108.108.054.161.162.161.325 0 .216-.161.324-.322.378.161 0 .215.162.269.378.053.27.053.325.107.379h-.269c-.054-.054-.054-.216-.107-.433-.054-.216-.162-.27-.323-.27h-.162v.811h-.054zm0-.865h.162c.215 0 .377-.054.377-.27 0-.163-.108-.27-.377-.27h-.162v.54z"/>
    </g>
</svg>
