<svg xmlns="http://www.w3.org/2000/svg" width="107" height="68" viewBox="0 0 107 68">
    <path fill="#5485F9" fill-rule="evenodd" d="M42.491 24.297c0 2.566 1.233 4.376 2.825 5.47 1.452.974 3.162 1.332 4.952 1.332 1.273 0 2.705-.298 3.143-.457.218-.08.457-.16.696-.2.298-.377.815-1.69.955-2.724-.08-.14-.378-.18-.518-.08-.457 1.174-1.59 2.845-4.157 2.845-3.261 0-5.907-2.308-5.907-6.485 0-4.117 2.586-6.046 5.629-6.046 2.884 0 3.78 1.551 4.077 2.904.14.12.438.1.537-.04a41.324 41.324 0 0 1-.278-2.924c-.179.02-.318-.02-.557-.08-.935-.258-2.446-.477-3.52-.477-2.069 0-3.919.557-5.37 1.691-1.512 1.174-2.507 3.063-2.507 5.27zm14.823 3.222l2.367-.855c.298-.1.338-.279.338-.577l.02-.915c.02-.736-.219-1.73-1.452-1.73-.557 0-1.233.278-1.273.895-.02.318-.04.557-.199.676-.298.239-.835.378-1.134.378-.179 0-.278-.1-.278-.279 0-1.034 2.247-2.446 3.7-2.446 1.431 0 2.128.835 2.068 2.327l-.12 3.46c-.04.916.14 1.731.916 1.731.198 0 .377-.06.497-.12.1-.059.199-.138.258-.138.08 0 .14.119.14.258 0 .1-.697.875-1.671.875-.478 0-.955-.179-1.293-.616-.08-.12-.199-.279-.318-.279-.14 0-.378.18-.776.398-.438.239-.875.497-1.432.497-.577 0-1.054-.159-1.392-.457a1.86 1.86 0 0 1-.617-1.392c0-.776.378-1.234 1.651-1.691zm-.12 1.452c0 .338.24 1.193 1.254 1.193.397 0 1.014-.298 1.213-.497.239-.239.239-.517.259-.935l.04-1.173c0-.219-.08-.259-.2-.259-.119 0-.457.08-.815.2-1.174.397-1.75.695-1.75 1.47zm11.144-5.191c.179-.12.219-.657-.02-.836H66.11c-.338 0-.358-.02-.358-.378v-.895c-.08-.139-.318-.139-.418-.099-.198.398-.576.935-.835 1.173-.199.18-.696.438-1.273.617-.08.12-.06.338.06.418h.557c.397 0 .417.04.417.577v4.554c0 1.194.358 2.148 2.069 2.148 1.014 0 1.73-.497 2.088-.915.04-.119-.04-.338-.199-.338-.06 0-.318.219-.497.279-.159.06-.338.1-.537.1-1.313 0-1.452-1.055-1.452-2.209v-3.719c0-.418.02-.477.358-.477h2.248zm1.536 4.773c0 1.432-.02 1.651-.756 1.73l-.497.06c-.14.1-.1.438.04.498.636-.04 1.233-.06 1.95-.06.695 0 1.272.02 1.869.06.139-.06.179-.418.04-.498l-.418-.06c-.716-.099-.756-.298-.756-1.73v-3.341c0-.696.06-.796.418-1.094.358-.299.875-.537 1.551-.537 1.273 0 1.89.855 1.89 2.128v2.844c0 1.432-.02 1.611-.756 1.73l-.398.06c-.14.1-.1.438.04.498.537-.04 1.133-.06 1.85-.06.696 0 1.272.02 1.988.06.14-.06.18-.398.04-.498l-.537-.06c-.716-.079-.756-.298-.756-1.73v-3.321c0-1.393-.676-2.566-2.565-2.566-1.015 0-1.97.477-2.685 1.034-.06-.04-.08-.199-.08-.378v-4.177c0-.875.04-1.87.06-2.466a.219.219 0 0 0-.2-.12c-.715.379-1.65.677-2.147.836-.1.06-.1.338 0 .398l.199.12c.596.357.616.477.616 1.65v8.99zm12.933-5.887c2.228 0 4.038 1.67 4.038 4.117 0 2.486-1.71 4.276-4.197 4.276-2.287 0-4.077-1.61-4.077-4.097 0-2.506 1.89-4.296 4.236-4.296zm2.327 4.435c0-1.69-.676-3.838-2.565-3.838-1.313 0-2.288 1.253-2.288 3.44 0 1.81.816 3.76 2.566 3.76s2.287-1.83 2.287-3.362zm5.137-7.956c0-.875.04-1.87.06-2.466a.219.219 0 0 0-.2-.12c-.715.379-1.65.677-2.147.836-.1.06-.1.338 0 .398l.198.12c.597.357.617.477.617 1.65v8.99c0 1.432-.02 1.631-.756 1.73l-.457.06c-.14.1-.1.438.04.498a27.92 27.92 0 0 1 1.909-.06c.696 0 1.273.02 1.93.06.138-.06.178-.398.039-.498l-.477-.06c-.716-.099-.756-.298-.756-1.73v-9.408zm3.147 9.408c0 1.432-.02 1.631-.755 1.73l-.418.06c-.14.1-.1.438.04.498.557-.04 1.153-.06 1.87-.06.695 0 1.272.02 1.869.06.14-.06.179-.398.04-.498l-.418-.06c-.716-.099-.756-.298-.756-1.73v-3.58c0-.815.04-1.77.08-2.466-.02-.08-.1-.12-.2-.12-.457.299-1.59.816-2.048.975-.1.06-.1.278-.02.358l.18.12c.536.357.536.457.536 1.233v3.48zm.657-10.183c-.597 0-1.074.417-1.074 1.074 0 .537.397.994 1.014.994.557 0 1.054-.318 1.054-1.034 0-.557-.398-1.034-.994-1.034zm7.543 4.296c-3.302 0-4.814 2.287-4.814 4.435 0 1.293.458 2.268 1.154 2.944.696.676 1.67 1.014 2.725 1.014 1.154 0 2.645-.557 3.322-2.028-.02-.18-.2-.319-.358-.279-.458.676-1.055 1.193-2.208 1.193-2.128 0-3.202-1.85-3.202-3.4 0-2.109 1.352-3.203 2.744-3.203.816 0 1.552.517 1.99 1.054.079.1.178.14.278.14.238 0 .437-.378.437-.736 0-.339-.139-.657-.298-.796-.537-.239-1.313-.338-1.77-.338zM42.49 42.61c0 2.566 1.233 4.376 2.825 5.47 1.452.974 3.162 1.332 4.952 1.332 1.273 0 2.705-.298 3.143-.457.218-.08.457-.16.696-.2.298-.377.815-1.69.955-2.724-.08-.14-.378-.179-.518-.08-.457 1.174-1.59 2.845-4.157 2.845-3.261 0-5.907-2.308-5.907-6.484 0-4.117 2.586-6.047 5.629-6.047 2.884 0 3.78 1.552 4.077 2.904.14.12.438.1.537-.04a41.324 41.324 0 0 1-.278-2.923c-.179.02-.318-.02-.557-.08-.935-.259-2.446-.477-3.52-.477-2.069 0-3.919.557-5.37 1.69-1.512 1.174-2.507 3.063-2.507 5.271zm14.226 4.256c0 1.432-.02 1.651-.756 1.73l-.497.06c-.139.1-.1.438.04.498.637-.04 1.233-.06 1.95-.06.695 0 1.272.02 1.869.06.14-.06.179-.418.04-.498l-.418-.06c-.716-.099-.756-.298-.756-1.73v-3.341c0-.696.06-.796.418-1.094.358-.298.875-.537 1.551-.537 1.273 0 1.89.855 1.89 2.128v2.844c0 1.432-.02 1.611-.756 1.73l-.398.06c-.14.1-.1.438.04.498.537-.04 1.134-.06 1.85-.06.696 0 1.273.02 1.989.06.139-.06.179-.398.04-.498l-.538-.06c-.716-.079-.755-.298-.755-1.73v-3.321c0-1.392-.677-2.566-2.566-2.566-1.015 0-1.97.477-2.685 1.034-.06-.04-.08-.199-.08-.378V37.46c0-.876.04-1.87.06-2.467a.219.219 0 0 0-.2-.119c-.715.378-1.65.676-2.147.835-.1.06-.1.338 0 .398l.199.12c.596.357.616.477.616 1.65v8.99zm10.348-1.034l2.367-.855c.298-.1.338-.279.338-.577l.02-.915c.02-.736-.22-1.73-1.452-1.73-.557 0-1.233.278-1.273.895-.02.318-.04.557-.2.676-.297.239-.834.378-1.133.378-.179 0-.278-.1-.278-.279 0-1.034 2.247-2.446 3.7-2.446 1.431 0 2.127.835 2.068 2.327l-.12 3.461c-.04.915.14 1.73.915 1.73.2 0 .378-.06.498-.119.099-.06.198-.14.258-.14.08 0 .14.12.14.26 0 .099-.697.874-1.671.874-.478 0-.955-.179-1.293-.616-.08-.12-.2-.279-.318-.279-.14 0-.378.18-.776.398-.438.239-.875.497-1.432.497-.577 0-1.054-.159-1.392-.457a1.86 1.86 0 0 1-.617-1.392c0-.776.378-1.233 1.65-1.69zm-.12 1.452c0 .338.24 1.193 1.254 1.193.397 0 1.014-.298 1.213-.497.238-.238.238-.517.258-.935l.04-1.173c0-.219-.08-.259-.199-.259-.12 0-.457.08-.815.2-1.174.397-1.75.695-1.75 1.471zm7.265-.418c0 1.432-.02 1.611-.756 1.73l-.378.06c-.139.1-.099.438.04.498.517-.04 1.114-.06 1.83-.06.696 0 1.273.02 2.208.06.139-.06.179-.398.04-.498l-.716-.06c-.756-.059-.796-.298-.796-1.73v-2.705c0-.676.06-1.253.259-1.531.159-.219.397-.398.716-.398.278 0 .576.12.875.318.139.08.238.14.437.14a.882.882 0 0 0 .855-.915c0-.478-.397-.796-.895-.796-.735 0-1.491.617-2.187 1.193-.04-.02-.06-.08-.06-.179v-1.153c0-.08-.06-.12-.16-.14-.496.299-1.55.816-2.008.975-.1.06-.1.279-.02.358l.18.12c.536.358.536.457.536 1.233v3.48zm6.111 0c0 1.432-.02 1.631-.756 1.73l-.417.06c-.14.1-.1.438.04.498.556-.04 1.153-.06 1.87-.06.695 0 1.272.02 1.869.06.139-.06.179-.398.04-.498l-.418-.06c-.716-.099-.756-.298-.756-1.73v-3.58c0-.815.04-1.77.08-2.466-.02-.08-.1-.12-.2-.12-.457.299-1.59.816-2.048.975-.1.06-.1.279-.02.358l.18.12c.536.358.536.457.536 1.233v3.48zm.656-10.183c-.596 0-1.074.418-1.074 1.074 0 .537.398.994 1.015.994.557 0 1.054-.318 1.054-1.034 0-.557-.398-1.034-.995-1.034zm7.842 5.41c.179-.12.219-.656-.02-.835h-2.208c-.338 0-.358-.02-.358-.378v-.895c-.08-.14-.318-.14-.417-.1-.2.398-.577.935-.836 1.174-.199.179-.696.437-1.273.616-.08.12-.06.338.06.418h.557c.398 0 .418.04.418.577v4.554c0 1.194.358 2.148 2.068 2.148 1.014 0 1.73-.497 2.088-.914.04-.12-.04-.339-.198-.339-.06 0-.319.22-.498.279-.159.06-.338.1-.537.1-1.312 0-1.452-1.055-1.452-2.208v-3.72c0-.417.02-.477.358-.477h2.248zm1.735 4.773c0 1.432-.02 1.631-.756 1.73l-.417.06c-.14.1-.1.438.04.498.556-.04 1.153-.06 1.87-.06.695 0 1.272.02 1.869.06.139-.06.179-.398.04-.498l-.418-.06c-.716-.099-.756-.298-.756-1.73v-3.58c0-.815.04-1.77.08-2.466-.02-.08-.1-.12-.2-.12-.457.299-1.59.816-2.048.975-.1.06-.1.279-.02.358l.18.12c.536.358.536.457.536 1.233v3.48zm.657-10.183c-.597 0-1.074.418-1.074 1.074 0 .537.397.994 1.014.994.557 0 1.054-.318 1.054-1.034 0-.557-.398-1.034-.994-1.034zm8.279 7.32h-3.68c-.517 0-.537.04-.537.536 0 2.01 1.173 3.72 3.302 3.72.656 0 1.213-.2 1.83-.975.198-.06.338.06.358.239-.657 1.352-2.089 1.85-3.123 1.85-1.293 0-2.307-.557-2.884-1.313-.597-.776-.835-1.71-.835-2.586 0-2.446 1.61-4.495 3.997-4.495 1.71 0 2.825 1.174 2.825 2.367 0 .278-.04.438-.08.517-.06.12-.338.14-1.173.14zm-3.859-.597h1.412c1.472 0 1.91-.08 2.069-.2.06-.04.119-.119.119-.377 0-.557-.378-1.253-1.531-1.253-1.174 0-2.188 1.074-2.208 1.73 0 .04 0 .1.139.1zm8.677-2.427c-1.512 0-2.705.816-2.705 2.267 0 1.094.815 1.79 1.969 2.447.736.418 1.531.915 1.531 1.83 0 .855-.616 1.273-1.332 1.273-1.134 0-1.77-.955-2.109-2.049-.099-.12-.358-.1-.457.02-.04.656.08 1.63.239 2.009.497.398 1.193.596 2.128.596 1.472 0 2.864-.755 2.864-2.267 0-1.412-.975-2.088-2.029-2.685-.696-.398-1.531-.835-1.531-1.65 0-.717.497-1.214 1.273-1.214.815 0 1.412.577 1.75 1.452.1.12.398.08.477-.06 0-.537-.139-1.173-.318-1.61-.179-.16-.915-.359-1.75-.359zM53.649 61.562c0 3.023-1.094 5.29-3.978 5.29-3.043 0-4.037-2.108-4.037-5.31v-4.296c0-2.069.04-2.407 1.193-2.506l.478-.04c.119-.08.08-.418-.04-.478-.975.04-1.631.06-2.447.06-.795 0-1.471-.02-2.466-.06-.12.06-.159.398-.04.478l.498.04c1.153.099 1.193.437 1.193 2.506v4.694c0 2.366.497 3.818 1.551 4.694.975.835 2.347 1.093 3.72 1.093 1.472 0 2.943-.517 3.799-1.451 1.113-1.194 1.392-3.024 1.392-4.754v-2.248c0-1.113 0-3.4.278-4.057.12-.259.498-.438.995-.477l.477-.04c.1-.12.12-.378-.04-.478-.716.04-1.253.06-2.088.06-.776 0-1.512-.02-2.267-.06-.12.08-.16.339-.04.478l.497.04c.497.04.855.179.994.417.339.597.378 2.884.378 4.117v2.288zm11.004 2.486c0-1.89-1.233-3.043-2.486-3.819l-1.591-.994c-.736-.458-1.69-1.293-1.69-2.447 0-.915.417-2.208 2.366-2.208 1.91 0 2.447 1.293 2.705 2.248.1.12.418.06.497-.06 0-.835-.179-1.949-.358-2.426-.159 0-.437-.04-.696-.12a7.688 7.688 0 0 0-1.85-.258c-2.585 0-4.057 1.531-4.057 3.42 0 1.632 1.154 2.766 2.148 3.422l1.89 1.233c1.452.935 1.63 1.91 1.63 2.785 0 1.193-.815 2.287-2.486 2.287-2.307 0-3.122-1.95-3.42-2.964-.08-.119-.379-.08-.478.06.04.935.298 2.347.537 2.785.378.218 1.432.735 3.103.735 2.585 0 4.236-1.491 4.236-3.68zm9.512 1.452l-.875-2.705c-.139-.438-.219-.497-.815-.497H69.47c-.497 0-.616.06-.755.477l-.696 2.088c-.299.895-.438 1.432-.438 1.651 0 .239.1.358.577.398l.656.06c.14.1.14.417-.04.497-.517-.04-1.133-.04-2.068-.06-.657 0-1.373.04-1.91.06-.119-.08-.159-.398-.04-.497l.657-.06c.477-.04.915-.259 1.193-.975.358-.915.915-2.207 1.75-4.435l2.03-5.37c.278-.716.397-1.094.338-1.412.477-.14.815-.498 1.034-.756.12 0 .258.04.298.179.259.875.577 1.79.875 2.665l2.725 7.996c.577 1.71.835 2.009 1.69 2.108l.538.06c.139.1.1.417 0 .497-.816-.04-1.512-.06-2.407-.06-.955 0-1.71.04-2.287.06-.16-.08-.18-.398-.04-.497l.577-.06c.418-.04.696-.16.696-.358 0-.219-.1-.577-.259-1.054zM13.752 9.865c-4.69.063-9.055.467-9.749 1.214 0-1.378.005-2.32.005-3.732.7.761 5.031 1.174 9.695 1.244-.2-4.948-.44-8.05-.641-8.51 1.964-.028 2.088-.028 4.326 0-.232.434-.49 3.55-.697 8.508 4.626-.074 8.888-.485 9.553-1.223 0 1.397-.011 2.346.012 3.722-.677-.737-4.97-1.145-9.615-1.22-.216 5.79-.361 13.728-.33 22.699v.45c-.06 17.802.576 34.036 1.083 34.983-2.226-.006-2.364-.006-4.319-.006.439-1.003 1.083-17.202 1.038-34.919v-.508c.007-9.014-.149-16.933-.36-22.702zm56.853 47.699c.219-.597.418-1.074.478-1.174h.04c.119.24.298.776.457 1.253l1.074 3.242c.179.537.139.617-.438.617H69.77c-.557 0-.577-.02-.418-.477l1.253-3.461zM12.471 17.193v5.384S5.054 33.08 4.046 34.83c-.468.81-.948 2.101-.948 3.237 0 8.49-.28 22.332.326 24.255.384 1.595 1.049 2.017 2.803 2.252 1.623.213 5.157.158 5.157.158l.01 3.268s-7.465.05-8.996-.939C1.127 66.24.649 64.762.528 63.684c-.063-.562-.156-26.357.1-27.58.255-1.224.613-2.6 1.787-4.46C3.588 29.788 12.47 17.193 12.47 17.193zm5.317 5.384v-5.384s8.884 12.595 10.056 14.45c1.174 1.86 1.53 3.237 1.788 4.46.255 1.225.161 27.019.098 27.58-.119 1.08-.598 2.556-1.868 3.378-1.533.989-8.996.939-8.996.939l.011-3.268s3.533.055 5.155-.158c1.753-.235 2.42-.657 2.803-2.252.607-1.923.328-15.764.328-24.255 0-1.136-.484-2.427-.949-3.237-1.008-1.751-8.426-12.253-8.426-12.253z"/>
</svg>
