<svg xmlns="http://www.w3.org/2000/svg" width="52" height="30" viewBox="0 0 52 30">
    <g fill="#5078FA" fill-rule="nonzero">
        <path d="M1.793 20.255a1.266 1.266 0 1 0-.001 2.534l15.454-.005a1.266 1.266 0 0 0 1.268-1.268c0-.7-.567-1.267-1.266-1.267l-15.455.006zM17.246 11.783c.35 0 .666-.143.896-.372a1.266 1.266 0 0 0-.895-2.163l-15.454.008a1.268 1.268 0 0 0-.001 2.534l15.454-.007zM21.787 16.654c0-.7-.567-1.267-1.267-1.267l-7.727.003c-.7 0-1.268.568-1.268 1.268 0 .7.567 1.267 1.267 1.267l7.727-.004a1.266 1.266 0 0 0 1.268-1.267zM40.313.965s-5.84-.596-10.642 2.774L28.37 4.772c-3.578 3.681-4.409 8.337-3.3 13.552 1.618 7.607 7.813 12.754 13.808 11.474.153-.032 6.803-1.494 6.803-1.494 1.317-.375 2.058-1.025 2.91-1.877.94-.939 1.725-2.14 2.314-3.57 1.223-2.954 1.473-6.564.706-10.167-.765-3.602-2.463-6.797-4.78-8.995C44.788 1.76 42.608.901 40.312.965zM42.33 5.31a12.75 12.75 0 0 0-2.495-1.899c1.474-.16 3.019.343 4.467 1.458l-1.792.383a1.238 1.238 0 0 0-.18.058zm-14.78 12.485c-.918-4.318.107-8.726 2.612-11.231.978-.978 2.113-1.61 3.376-1.88 4.628-.988 9.475 3.285 10.802 9.525.918 4.32-.106 8.727-2.61 11.231-.98.978-2.115 1.61-3.378 1.88-4.629.988-9.475-3.285-10.802-9.525zm17.037 8.193a12.583 12.583 0 0 0 1.521-2.74h.002l2.01-.429c-.878 1.627-2.102 2.722-3.533 3.17zm4.571-5.983l-2.234.477c.333-1.749.379-3.621.114-5.52l2.269-.484c.015-.003.027-.012.042-.016.271 1.935.203 3.828-.19 5.543zm-.334-8.01c-.015.002-.03.002-.045.005l-2.26.482a16.866 16.866 0 0 0-2.346-4.994l2.222-.474c1.057 1.404 1.889 3.105 2.429 4.982z"/>
        <path d="M39.03 24.82a1.266 1.266 0 0 0 .906-1.548l-.41-1.573c.16-.115.315-.238.455-.378.28-.28.517-.608.707-.978a4.28 4.28 0 0 0 .307-3.03 4.272 4.272 0 0 0-1.747-2.487c-.865-.576-1.866-.767-2.835-.55-.022.005-.043.005-.064.01-.672.176-1.398-.364-1.616-1.203a1.738 1.738 0 0 1 .11-1.234c.092-.182.308-.5.71-.606.403-.105.748.068.917.181.338.226.588.588.701 1.02a1.266 1.266 0 1 0 2.451-.642 4.26 4.26 0 0 0-1.745-2.488 3.738 3.738 0 0 0-1.748-.623l-.3-1.149a1.267 1.267 0 1 0-2.452.642l.313 1.2c-.452.337-.83.78-1.104 1.316a4.267 4.267 0 0 0-.306 3.026c.56 2.144 2.595 3.48 4.58 3.039.022-.005.044-.004.066-.01.402-.106.746.067.915.18.34.226.588.589.701 1.022.114.433.074.873-.112 1.235-.092.182-.307.5-.71.607-.672.176-1.398-.364-1.617-1.203a1.266 1.266 0 1 0-2.452.641c.45 1.725 1.857 2.926 3.423 3.102l.411 1.575a1.267 1.267 0 0 0 1.546.906z"/>
    </g>
</svg>
