<svg xmlns="http://www.w3.org/2000/svg" width="102" height="104" viewBox="0 0 102 104">
    <g fill="none" fill-rule="evenodd">
        <path fill="#5485F9" d="M66 42h34s-2 15.5-15.5 15.5S66 42 66 42zM25 101h53l-5.397-11H27.695zM1 57h34s-2 15.5-15.5 15.5S1 57 1 57z"/>
        <path fill="#464646" fill-rule="nonzero" d="M101.7 39.65C94.983 24.917 86.967 7.15 83.933 2.6 83.5 1.517 71.583 4.983 62.05 7.367 60.317 3.033 55.983-.217 51 .217 44.5.65 40.383 4.983 39.3 13l-20.8 4.983c-.433.217-1.083.65-1.3 1.3L.3 55.467c-.217.216-.217.65-.217.866 0 10.4 8.45 19.067 19.067 19.067s19.067-8.45 19.067-19.067c0-.216 0-.65-.217-.866L22.183 21.45l18.2-4.55c1.517 3.467 4.767 6.067 8.667 6.717v52.866h-6.283c-4.767 0-8.45 3.9-8.45 9.967h.65c-7.15 0-12.784 5.633-12.784 12.783v2.6c0 1.084.867 2.167 2.167 2.167h53.733c1.084 0 2.167-.867 2.167-2.167V99.45c0-7.15-5.633-12.783-12.783-12.783h.866c-.216-6.284-3.9-9.967-8.666-9.967h-6.284V23.617c6.284-1.517 9.1-5.85 9.75-12.35l16.034-3.684L64 39.65c-.217.217-.217.65-.217.867 0 10.4 8.45 19.066 19.067 19.066s19.067-8.45 19.067-19.066c0-.217 0-.65-.217-.867zM19.15 71.067c-7.367 0-13.65-5.417-14.517-12.784h29.034c-.867 7.367-7.15 12.784-14.517 12.784zm13.433-16.9H5.5l13.65-29.034 13.433 29.034zM67.25 90.783c4.767 0 8.45 3.9 8.45 8.45v.434H26.517v-.434c0-4.766 3.9-8.45 8.45-8.45H67.25zm-7.583-9.966A4.346 4.346 0 0 1 64 85.15v1.517H38.433V85.15a4.346 4.346 0 0 1 4.334-4.333h16.9zm-8.45-61.1c-4.334 0-7.584-3.467-7.584-7.584 0-4.116 3.25-7.8 7.584-7.8 4.333 0 7.583 3.467 7.583 7.584 0 4.116-3.467 7.8-7.583 7.8zm31.633-10.4L96.5 38.35H69.417L82.85 9.317zm0 46.15c-7.367 0-13.65-5.417-14.517-12.784h29.25c-1.083 7.15-7.15 12.784-14.733 12.784z"/>
        <path stroke="#464646" stroke-linecap="round" stroke-linejoin="round" stroke-width="2" d="M56.946 12.127a7.006 7.006 0 0 0-5.287-5.93"/>
    </g>
</svg>
