<svg xmlns="http://www.w3.org/2000/svg" width="53" height="30" viewBox="0 0 53 30">
    <g fill="#5078FA" fill-rule="nonzero">
        <path d="M1.624 20.64a1.266 1.266 0 1 0-.001 2.534l15.454-.004a1.266 1.266 0 0 0 1.268-1.268c0-.7-.566-1.267-1.266-1.267l-15.455.006zM17.081 11.96c.35 0 .667-.142.897-.372a1.266 1.266 0 0 0-.895-2.163l-15.454.008a1.268 1.268 0 0 0-.002 2.534l15.454-.007zM22.21 16.295c0-.7-.567-1.266-1.267-1.266l-7.727.003c-.7 0-1.267.568-1.268 1.268 0 .7.567 1.267 1.267 1.266l7.727-.003a1.266 1.266 0 0 0 1.268-1.268zM40.765.48s-5.84-.596-10.642 2.774L28.82 4.286c-3.577 3.682-4.409 8.338-3.3 13.553 1.619 7.606 7.813 12.754 13.809 11.474.153-.032 6.803-1.494 6.803-1.494 1.316-.375 2.058-1.025 2.91-1.877.94-.94 1.724-2.14 2.314-3.57 1.222-2.954 1.473-6.565.706-10.167-.766-3.602-2.464-6.797-4.781-8.995C45.24 1.274 43.06.416 40.765.48zm2.015 4.344a12.75 12.75 0 0 0-2.494-1.898c1.473-.16 3.019.343 4.467 1.458l-1.793.383c-.062.013-.12.035-.18.057zM28 17.31c-.918-4.317.108-8.725 2.613-11.23.978-.978 2.112-1.61 3.375-1.88 4.629-.988 9.475 3.285 10.802 9.525.919 4.319-.106 8.726-2.61 11.23-.979.98-2.115 1.611-3.377 1.88-4.63.989-9.476-3.284-10.803-9.525zm17.038 8.194a12.583 12.583 0 0 0 1.52-2.74h.002l2.01-.43c-.878 1.628-2.102 2.723-3.532 3.17zm4.57-5.984l-2.234.478c.334-1.75.38-3.621.115-5.52l2.269-.484c.015-.003.027-.013.042-.016.27 1.935.203 3.828-.191 5.542zm-.333-8.009l-.045.004-2.261.483a16.866 16.866 0 0 0-2.345-4.994l2.221-.475c1.058 1.405 1.89 3.105 2.43 4.982z"/>
        <path d="M38.736 24.38a1.266 1.266 0 0 0 .906-1.548l-.41-1.573c.159-.115.314-.238.455-.379.279-.278.517-.607.707-.978a4.28 4.28 0 0 0 .306-3.029 4.272 4.272 0 0 0-1.747-2.487c-.865-.577-1.866-.767-2.834-.55-.022.005-.043.005-.064.01-.673.176-1.399-.364-1.617-1.203a1.738 1.738 0 0 1 .111-1.234c.092-.182.308-.501.71-.606.402-.106.747.067.917.181.338.226.587.588.7 1.02a1.266 1.266 0 1 0 2.451-.642 4.26 4.26 0 0 0-1.744-2.488 3.738 3.738 0 0 0-1.748-.623l-.3-1.149a1.267 1.267 0 1 0-2.452.642l.313 1.2c-.452.337-.831.78-1.105 1.316a4.267 4.267 0 0 0-.306 3.026c.56 2.144 2.596 3.48 4.58 3.039.023-.005.044-.004.066-.01.403-.106.747.067.916.18.34.226.587.589.7 1.022.114.433.074.873-.111 1.235-.093.181-.307.5-.71.607-.673.176-1.398-.364-1.617-1.203a1.266 1.266 0 1 0-2.452.64c.45 1.726 1.856 2.927 3.423 3.103l.41 1.575a1.267 1.267 0 0 0 1.546.906z"/>
    </g>
</svg>
