<svg xmlns="http://www.w3.org/2000/svg" xmlns:xlink="http://www.w3.org/1999/xlink" width="96" height="112" viewBox="0 0 96 112">
    <defs>
        <path id="a" d="M45.75 61.054h3.5v95h-3.5z"/>
    </defs>
    <g fill="none" fill-rule="evenodd">
        <path fill="#5485F9" d="M27.394 32.842l5.619-2.895v-8.684s4.214-5.066 16.155-5.066c11.94 0 14.048 5.79 14.048 5.79l.702 7.96 5.62 2.171S74.454 3.895 48.466 3.895c-25.99 0-21.072 28.947-21.072 28.947z"/>
        <path fill="#464646" fill-rule="nonzero" stroke="#464646" d="M66.714 69.692h-4.327V57.636c5.332-4.417 8.432-11.087 8.429-18.136V21.886c.031-10.687-8.34-19.383-18.712-19.439h-2.36V1h-2.81v1.447h-2.36c-10.372.056-18.743 8.752-18.712 19.439V39.5c-.002 7.049 3.097 13.719 8.43 18.136v12.056h-5.41c-15.388.024-27.855 12.875-27.87 28.73v10.914h2.81V98.422c.015-14.256 11.224-25.811 25.06-25.835h6.336l13.121 7.12 13.12-7.12h5.255c13.837.024 25.046 11.58 25.062 25.835v10.914h2.81V98.422c-.016-15.855-12.483-28.706-27.872-28.73zM28.672 21.93c-.026-4.372 1.635-8.576 4.617-11.687 2.982-3.11 7.042-4.873 11.285-4.9h7.53c8.82.056 15.933 7.456 15.902 16.544v8.944l-2.627-.883a.878.878 0 0 1-.59-.767v-7.917l-.435-.434c-3.812-3.74-8.882-5.816-14.146-5.79h-3.751c-5.265-.026-10.334 2.05-14.147 5.79l-.435.434V28.934c0 .608 0 .724-.548.97l-2.67.926.015-8.901zm33.308 3.835a21.64 21.64 0 0 0-11.154-3.227H44.77a21.377 21.377 0 0 0-10.087 2.62v-2.664c3.234-2.99 7.428-4.64 11.773-4.631h3.765c4.344-.009 8.538 1.641 11.772 4.631l-.014 3.271zM28.672 39.5v-5.616l3.638-1.288c1.51-.522 2.49-2.025 2.389-3.662v-.506c3.027-1.949 6.517-3 10.086-3.04h6.055a19.28 19.28 0 0 1 11.154 3.763c.032 1.578 1.012 2.969 2.458 3.488l3.554 1.23V39.5c0 11.191-8.805 20.263-19.667 20.263-10.862 0-19.667-9.072-19.667-20.263zm19.667 36.937l-11.238-6.094V59.618a21.634 21.634 0 0 0 22.477 0v10.71l-11.239 6.109z"/>
        <path fill="#464646" fill-rule="nonzero" d="M47.763 52.324c4.922.138 9.624-2.1 12.714-6.05a1.48 1.48 0 0 0-.31-2.027 1.381 1.381 0 0 0-1.966.319c-2.555 3.206-6.414 5.004-10.438 4.863-4.029.145-7.893-1.653-10.452-4.863a1.373 1.373 0 0 0-1.766-.06 1.475 1.475 0 0 0-.425 1.768c3.074 3.93 7.746 6.165 12.643 6.05z"/>
        <path fill="#5485F9" d="M69.538 102.316l7.024-7.96s1.404-5.067-4.215-5.067l-2.81 2.895-2.81-2.895c-5.618 0-4.213 5.066-4.213 5.066l7.024 7.96z"/>
        <path fill="#464646" fill-rule="nonzero" d="M69.51 89.29l-.127.13-.112-.13a4.78 4.78 0 0 0-4.711-1.301c-1.684.465-2.998 1.819-3.45 3.553a5.13 5.13 0 0 0 1.263 4.854l7.024 7.237 7.024-7.237a5.1 5.1 0 0 0 1.43-3.553 5.1 5.1 0 0 0-1.43-3.554 4.895 4.895 0 0 0-6.912 0zm4.916 5.065l-5.043 5.21-5.03-5.18a2.175 2.175 0 0 1 0-3.011 2.023 2.023 0 0 1 2.923 0l2.107 2.17 2.107-2.17a2.076 2.076 0 0 1 2.922 0c.388.399.606.94.606 1.505a2.16 2.16 0 0 1-.606 1.505l.014-.029z"/>
        <g transform="rotate(-90 48 109.054)">
            <use fill="#464646" xlink:href="#a"/>
            <path stroke="#464646" d="M46.25 61.554h2.5v94h-2.5v-94z"/>
        </g>
    </g>
</svg>
