<svg xmlns="http://www.w3.org/2000/svg" width="122" height="100" viewBox="0 0 122 100">
    <g fill="none" fill-rule="evenodd">
        <path fill="#5485F9" d="M26.413 2.273L118.86 45 95.18 97.273 1.822 55.455z"/>
        <path fill="#FFF" d="M40.075 15.91l59.658 27.726.455 8.182 4.554 6.364-8.653 20.454-8.197-.454-5.92 5-60.568-27.273-.911-10.454-4.554-3.637 9.563-20.454 8.653-.455z"/>
        <ellipse cx="60.568" cy="49.545" fill="#FFF" rx="13.207" ry="13.182"/>
        <g fill="#464646" fill-rule="nonzero">
            <path d="M1.178 57.176l92.657 42.32a2.025 2.025 0 0 0 1.542.057 2.02 2.02 0 0 0 1.134-1.045l24.441-53.019a2.005 2.005 0 0 0-.993-2.665L27.303.504a2.028 2.028 0 0 0-2.677.988L.184 54.51a2.005 2.005 0 0 0 .994 2.665zM27.454 4.995l88.986 40.643-22.757 49.367L4.696 54.362 27.454 4.995z"/>
            <path d="M95.36 80.726c.06.014.121.015.182.023.075.01.15.023.223.024.012 0 .024.004.036.004.029 0 .056-.01.084-.012.133-.005.264-.024.393-.055.048-.012.095-.023.143-.037.154-.05.304-.113.442-.197.022-.014.04-.032.062-.046a1.99 1.99 0 0 0 .426-.384c.11-.133.21-.275.286-.438l9.654-20.94a2.008 2.008 0 0 0-.993-2.665c-4.42-2.019-6.364-7.238-4.337-11.635a2.005 2.005 0 0 0-.994-2.665l-60.425-27.6a2.022 2.022 0 0 0-2.677.987c-2.027 4.398-7.27 6.335-11.69 4.316a2.022 2.022 0 0 0-2.677.988l-9.653 20.94a2.008 2.008 0 0 0 .993 2.665c4.419 2.018 6.364 7.238 4.337 11.634a2.005 2.005 0 0 0 .993 2.665l60.428 27.6a2.019 2.019 0 0 0 2.677-.987c2.026-4.398 7.271-6.336 11.69-4.317.13.059.262.102.397.132zm-8.547-4.155a12.738 12.738 0 0 0-6.213 4.907L23.527 55.41c1.492-5.31-.634-11.011-5.243-14.07L26.4 23.738c1.13.317 2.288.494 3.45.494 1.508 0 3.018-.267 4.473-.804a12.738 12.738 0 0 0 6.213-4.907L97.61 44.589c-1.491 5.31.634 11.011 5.244 14.07l-8.115 17.6a12.819 12.819 0 0 0-7.925.312z"/>
            <path d="M67.573 34.808a16.728 16.728 0 0 0-6.995-1.528c-6.548 0-12.543 3.825-15.273 9.747a16.536 16.536 0 0 0-.482 12.785c1.56 4.186 4.665 7.517 8.742 9.379a16.724 16.724 0 0 0 6.995 1.527h.001c6.547 0 12.542-3.825 15.272-9.746 3.86-8.377.156-18.32-8.26-22.164zm4.59 20.487c-2.075 4.498-6.628 7.404-11.603 7.404-1.838 0-3.626-.391-5.311-1.16a12.64 12.64 0 0 1-6.64-7.123 12.559 12.559 0 0 1 .366-9.71C51.05 40.207 55.603 37.3 60.58 37.3a12.7 12.7 0 0 1 5.311 1.16c6.39 2.92 9.205 10.471 6.272 16.834z"/>
        </g>
    </g>
</svg>
