<svg xmlns="http://www.w3.org/2000/svg" width="105" height="100" viewBox="0 0 105 100">
    <g fill="none" fill-rule="evenodd">
        <path fill="#ECECEC" d="M65.104 27.083l14.063-3.125-1.042 8.855z"/>
        <ellipse cx="52.604" cy="9.375" fill="#5485F9" rx="5.729" ry="7.292"/>
        <path fill="#464646" fill-rule="nonzero" d="M98.094 50.28h-4.857a33.949 33.949 0 0 0-12.772-16.982l1.174-10.796a2.02 2.02 0 0 0-2.49-2.184L59.455 25.09c-2.28-.31-4.58-.466-6.882-.465a47.095 47.095 0 0 0-29.37 9.745 34.599 34.599 0 0 0-10.12 12.716A8.823 8.823 0 0 1 5.43 41.07a8.808 8.808 0 0 1 2.553-9.388 2.02 2.02 0 0 0 .117-2.794 2.026 2.026 0 0 0-2.789-.239 12.87 12.87 0 0 0-3.888 13.175 12.888 12.888 0 0 0 10.223 9.185 28.274 28.274 0 0 0-1.113 7.845c0 9.745 5.02 18.903 13.845 25.393l-1.781 3.093a6.059 6.059 0 0 0-.446 4.893 6.734 6.734 0 0 0 2.976 3.8l4.149 2.386a6.078 6.078 0 0 0 4.696.607 6.071 6.071 0 0 0 3.785-2.952l2.307-4.549a50.78 50.78 0 0 0 22.893.465l.607 2.244a6.212 6.212 0 0 0 6.072 4.852c.436 0 .87-.048 1.295-.141l4.716-1.031A6.226 6.226 0 0 0 80.1 90.33l-1.052-4.933a36.105 36.105 0 0 0 12.144-13h6.902a6.17 6.17 0 0 0 6.073-6.065v-9.886a6.17 6.17 0 0 0-6.073-6.166zM77.287 24.929l-.648 5.883a45.507 45.507 0 0 0-8.36-3.7l9.008-2.183zm22.832 41.345a2.023 2.023 0 0 1-2.025 2.021h-8.096a2.026 2.026 0 0 0-.283 0 2.026 2.026 0 0 0-.446 0c-.223.122-.44.257-.647.405-.101.11-.19.233-.263.364a1.9 1.9 0 0 0-.183.242A32.08 32.08 0 0 1 75.79 82.548c-.119.089-.227.19-.324.303a2.023 2.023 0 0 0-.243.242 8.749 8.749 0 0 0-.303.708c-.01.114-.01.23 0 .344a2.02 2.02 0 0 0 0 .445l1.356 6.287a2.284 2.284 0 0 1-1.356 2.77l-4.858 1.375a2.186 2.186 0 0 1-2.55-1.739l-1.114-4.185a2.021 2.021 0 0 0-.161-.303 2.02 2.02 0 0 0-.203-.405 2.024 2.024 0 0 0-.243-.202 2.023 2.023 0 0 0-.344-.303h-.263a2.026 2.026 0 0 0-.465-.162h-.304a2.026 2.026 0 0 0-.486 0A47.72 47.72 0 0 1 39.64 87.3h-1.012l-.364.121-.324.182-.304.243c-.09.093-.171.194-.242.303-.05.051-.098.105-.142.162l-2.996 5.903a2.024 2.024 0 0 1-1.275.97 2.026 2.026 0 0 1-1.62-.222l-4.169-2.406a2.69 2.69 0 0 1-1.133-1.496 2.02 2.02 0 0 1 0-1.658l2.712-4.67c.043-.105.077-.213.101-.323a2.02 2.02 0 0 0 .122-.385 2.02 2.02 0 0 0 0-.384c.042-.256-.001-.518-.122-.748a2.02 2.02 0 0 0-.162-.343 2.023 2.023 0 0 0-.283-.283 2.023 2.023 0 0 0-.243-.243C19.54 76.26 14.581 67.87 14.581 58.893a24.398 24.398 0 0 1 1.7-8.956v-.142a30.189 30.189 0 0 1 9.372-12.13 43.044 43.044 0 0 1 26.86-8.855c2.248 0 4.494.162 6.72.485h.1a42.353 42.353 0 0 1 17.792 6.732 29.783 29.783 0 0 1 12.61 16.902v.142c.048.127.11.249.182.364.196.329.475.6.81.788l.344.121h7.023c1.118 0 2.025.906 2.025 2.022v9.907z"/>
        <path fill="#464646" fill-rule="nonzero" d="M53.16 32.118c-5.201-.017-10.309 1.74-14.31 4.993-.355.29-.35 1.032-.35 1.389s.536.946.91 1.089c.376.142 1.446.135 2.01-.324 7.42-5.805 17.98-5.288 24.795 1.213.525.499 1.689.558 1.97.475.28-.082.815-1.364.815-1.364S69 38.5 68.5 38c-4.12-4.12-9.424-5.865-15.34-5.882z"/>
        <ellipse cx="81.032" cy="53.637" fill="#464646" fill-rule="nonzero" rx="2.813" ry="2.81"/>
        <path fill="#464646" fill-rule="nonzero" d="M52.148 18.438c5.097 0 9.23-4.127 9.23-9.219 0-5.091-4.133-9.219-9.23-9.219s-9.23 4.128-9.23 9.22c0 5.09 4.133 9.218 9.23 9.218zm0-14.395A5.179 5.179 0 0 1 57.33 9.22a5.179 5.179 0 0 1-5.182 5.176 5.179 5.179 0 0 1-5.182-5.176 5.179 5.179 0 0 1 5.182-5.176z"/>
    </g>
</svg>
