<svg xmlns="http://www.w3.org/2000/svg" width="93" height="91" viewBox="0 0 93 91">
    <g fill="none" fill-rule="evenodd">
        <path stroke="#464646" stroke-linecap="round" stroke-linejoin="round" stroke-width="4" d="M64.228 8.792L60 2M78.378 13.356l5.466-5.842M83 28l7.412 3.01"/>
        <path fill="#5485F9" d="M53.313 35.53l-38 36.705 3.403 4.518 39.135-37.835-1.702-3.953z"/>
        <path fill="#ECECEC" d="M14.18 73.93L2.268 84.658l1.701 4.517 3.97-.564 10.776-11.86z"/>
        <path fill="#464646" fill-rule="nonzero" d="M70.93 28.56l2.007-5.895c.37-1.1.083-2.315-.741-3.135a3.084 3.084 0 0 0-3.15-.738l-5.92 1.999-5.014-3.727a3.085 3.085 0 0 0-3.236-.273A3.059 3.059 0 0 0 53.2 19.56l.113 6.223-5.104 3.591a3.055 3.055 0 0 0 .862 5.421l.454.147L2.042 82.185a5.08 5.08 0 0 0-1.456 4.979 5.105 5.105 0 0 0 3.68 3.669 5.13 5.13 0 0 0 5.001-1.442l47.45-47.255.136.452a3.047 3.047 0 0 0 2.45 2.112c.162.013.325.013.487 0a3.056 3.056 0 0 0 2.519-1.265l3.607-5.082 6.25.079a2.996 2.996 0 0 0 2.78-1.672 3.027 3.027 0 0 0-.273-3.218L70.93 28.56zM6.806 86.998a1.752 1.752 0 0 1-2.416 0 1.7 1.7 0 0 1 0-2.406l9.698-9.656 2.473 2.383-9.755 9.679zm12.16-12.051L16.55 72.54l36.616-36.468 1.849.587.567 1.818-36.616 36.469zm46.825-39.97a3.067 3.067 0 0 0-2.552 1.288l-3.324 4.687-1.701-5.422a3.067 3.067 0 0 0-2.02-2.021l-5.5-1.706 4.695-3.309a3.057 3.057 0 0 0 1.327-2.575l-.079-5.726 4.617 3.388c.81.602 1.867.767 2.824.44l5.456-1.84-1.883 5.444a3.05 3.05 0 0 0 .409 2.834l3.403 4.597-5.672-.079z"/>
    </g>
</svg>
