<svg xmlns="http://www.w3.org/2000/svg" width="116" height="91" viewBox="0 0 116 91">
    <g fill="none" fill-rule="evenodd">
        <path fill="#FFF" d="M2.32 48.72h110.2v39.44H2.32z"/>
        <g fill="#464646" fill-rule="nonzero">
            <path d="M109.597 90.29H6.403A6.41 6.41 0 0 1 0 83.887V51.448a6.41 6.41 0 0 1 6.403-6.403h103.194A6.41 6.41 0 0 1 116 51.448v32.44a6.41 6.41 0 0 1-6.403 6.402zM6.403 49.314a2.137 2.137 0 0 0-2.134 2.134v32.44c0 1.178.957 2.134 2.134 2.134h103.194a2.135 2.135 0 0 0 2.134-2.134v-32.44a2.137 2.137 0 0 0-2.134-2.134H6.403z"/>
            <path d="M33.735 48.674a2.133 2.133 0 0 1-1.83-3.23l19.765-33.03a2.135 2.135 0 0 1 3.663 2.192L35.568 47.634c-.4.67-1.108 1.04-1.833 1.04zM82.266 48.674c-.726 0-1.433-.37-1.834-1.04L60.85 14.911a2.134 2.134 0 0 1 3.663-2.192l19.582 32.724a2.134 2.134 0 0 1-1.829 3.23z"/>
            <path d="M58 16.916c-4.612 0-8.364-3.751-8.364-8.362C49.636 3.943 53.388.19 58 .19c4.611 0 8.362 3.752 8.362 8.363 0 4.61-3.751 8.362-8.362 8.362zm0-12.458a4.1 4.1 0 0 0-4.095 4.095A4.1 4.1 0 0 0 58 12.647a4.098 4.098 0 0 0 4.094-4.094A4.098 4.098 0 0 0 58 4.458z"/>
        </g>
        <text fill="#5485F9" font-family="Poppins" font-size="20" font-weight="bold" letter-spacing=".417">
            <tspan x="29" y="74">open</tspan>
        </text>
    </g>
</svg>
