<svg xmlns="http://www.w3.org/2000/svg" width="72" height="88" viewBox="0 0 72 88">
    <g fill="none" fill-rule="evenodd">
        <circle cx="10.5" cy="10.5" r="8.5" fill="#5485F9"/>
        <path fill="#000" fill-rule="nonzero" d="M10.723 0C4.81 0 0 4.764 0 10.62c0 5.857 4.81 10.621 10.723 10.621 5.914 0 10.724-4.764 10.724-10.62C21.447 4.764 16.637 0 10.723 0zm0 18.207c-4.228 0-7.66-3.399-7.66-7.586 0-4.188 3.432-7.587 7.66-7.587s7.66 3.4 7.66 7.587c0 4.187-3.432 7.586-7.66 7.586zM18.827 42.043c.307.288.69.44 1.088.44.398 0 .781-.152 1.088-.44a1.5 1.5 0 0 0 0-2.14L11.81 30.8a1.536 1.536 0 0 0-2.16 0L.46 39.903a1.5 1.5 0 0 0 0 2.14c.29.288.674.44 1.072.44s.781-.152 1.088-.44l6.571-6.524V66.88C3.998 67.623 0 72.039 0 77.38 0 83.235 4.81 88 10.723 88c5.914 0 10.724-4.764 10.724-10.62 0-5.341-3.998-9.757-9.192-10.5V35.519l6.572 6.524zm-.444 35.336c0 4.188-3.432 7.587-7.66 7.587s-7.66-3.4-7.66-7.587c0-4.187 3.432-7.586 7.66-7.586s7.66 3.399 7.66 7.586zM62.809 66.88v-3.156a1.53 1.53 0 0 0-1.532-1.517 1.53 1.53 0 0 0-1.532 1.517v3.156c-5.194.743-9.192 5.159-9.192 10.5 0 5.856 4.81 10.62 10.724 10.62C67.19 88 72 83.236 72 77.38c0-5.341-3.998-9.757-9.191-10.5zm-1.532 18.086c-4.228 0-7.66-3.4-7.66-7.587 0-4.187 3.432-7.586 7.66-7.586s7.66 3.399 7.66 7.586c0 4.188-3.432 7.587-7.66 7.587zM34.33 12.138h.613a1.53 1.53 0 0 0 1.532-1.517 1.53 1.53 0 0 0-1.532-1.518h-.613l6.572-6.509a1.5 1.5 0 0 0 0-2.139 1.536 1.536 0 0 0-2.16 0L29.551 9.56a1.5 1.5 0 0 0 0 2.139l9.191 9.103c.307.289.69.44 1.088.44.398 0 .781-.151 1.087-.44a1.5 1.5 0 0 0 0-2.139l-6.587-6.524zM61.277 53.103a1.53 1.53 0 0 0-1.532 1.518v3.034c0 .835.689 1.517 1.532 1.517a1.53 1.53 0 0 0 1.532-1.517v-3.034a1.53 1.53 0 0 0-1.532-1.518zM62.809 45.517A1.53 1.53 0 0 0 61.277 44a1.53 1.53 0 0 0-1.532 1.517v3.035c0 .834.689 1.517 1.532 1.517a1.53 1.53 0 0 0 1.532-1.517v-3.035zM62.809 34.897a1.53 1.53 0 0 0-1.532-1.518 1.53 1.53 0 0 0-1.532 1.518v4.551c0 .835.689 1.518 1.532 1.518a1.53 1.53 0 0 0 1.532-1.518v-4.551zM59.745 25.793v3.035c0 .834.689 1.517 1.532 1.517a1.53 1.53 0 0 0 1.532-1.517v-3.035a1.53 1.53 0 0 0-1.532-1.517 1.53 1.53 0 0 0-1.532 1.517zM54.398 14.49c.506 0 .996-.243 1.287-.698.46-.698.26-1.639-.46-2.094a16.474 16.474 0 0 0-4.61-2.033 1.54 1.54 0 0 0-1.885 1.077 1.533 1.533 0 0 0 1.073 1.866c1.332.35 2.588.91 3.753 1.654.275.152.551.228.842.228z"/>
        <path fill="#000" fill-rule="nonzero" d="M44.134 9.103h-3.063a1.53 1.53 0 0 0-1.532 1.518c0 .834.69 1.517 1.532 1.517h3.063a1.53 1.53 0 0 0 1.532-1.517 1.53 1.53 0 0 0-1.532-1.518zM58.764 20.437c.245.592.812.94 1.425.94.2 0 .383-.03.582-.105.781-.319 1.164-1.199.843-1.973a16.515 16.515 0 0 0-1.578-2.943 1.54 1.54 0 0 0-2.13-.41 1.507 1.507 0 0 0-.413 2.11c.49.743.919 1.547 1.271 2.381z"/>
    </g>
</svg>
