<svg xmlns="http://www.w3.org/2000/svg" width="62" height="110" viewBox="0 0 62 110">
    <g fill="none" fill-rule="evenodd">
        <path fill="#5485F9" d="M3.3 17.778h55v74h-55z"/>
        <path fill="#464646" fill-rule="nonzero" d="M52.433.111H9.544c-5 0-9.222 4.111-9.222 9.222V99.89c0 5 4.111 9.222 9.222 9.222h42.89c5 0 9.222-4.111 9.222-9.222V9.222c0-5-4.112-9.11-9.223-9.11zM9.544 3.556h42.89c3.11 0 5.666 2.555 5.666 5.666v5.222H3.878V9.222c0-3.11 2.555-5.666 5.666-5.666zm48.667 14.333V90H3.878V17.889H58.21zm-5.778 87.667H9.544c-3.11 0-5.666-2.556-5.666-5.667v-6.333H58.21v6.333c0 3.111-2.555 5.667-5.778 5.667z"/>
        <circle cx="30.989" cy="99.333" r="3.667" fill="#000" fill-rule="nonzero"/>
        <circle cx="30.878" cy="99.333" r="3.667" fill="#464646" fill-rule="nonzero"/>
        <path fill="#464646" fill-rule="nonzero" d="M24.211 7.889a1.47 1.47 0 0 0-1.444 1.444 1.47 1.47 0 0 0 1.444 1.445h13.111a1.47 1.47 0 0 0 1.445-1.445 1.47 1.47 0 0 0-1.445-1.444h-13.11z"/>
        <g stroke="#464646">
            <path fill="#FFF" stroke-width="2.5" d="M16.878 77l-1.667-8.333h-5.23c-1.1 0-1.992-.893-1.992-1.998V42.88c0-1.103.89-1.998 2.002-1.998h41.555c1.106 0 2.002.89 2.002 2.002V66.11a2.004 2.004 0 0 1-2.009 2.002H24.656L16.878 77z"/>
            <path stroke-linecap="round" stroke-linejoin="round" stroke-width="2" d="M16.878 48.889h26.666M16.878 54.444h26.666M16.878 60h16.666"/>
        </g>
    </g>
</svg>
