<svg xmlns="http://www.w3.org/2000/svg" width="99" height="88" viewBox="0 0 99 88">
    <g fill="none" fill-rule="evenodd">
        <path fill="#5485F9" d="M49.693 83.255l31.511-31.536s25.724-22.526 9.647-39.902c-20.718-22.393-40.515 0-40.515 0S27.185-8.778 10.464 9.886C-6.256 28.55 13.68 47.214 13.68 47.214l36.013 36.04z"/>
        <path fill="#FFF" d="M79.546 5.17L42.518 42.229s-1.609.32-1.609 3.543c0 3.222 10.303 13.534 10.303 13.534s1.288 2.577 5.152 1.933c3.864-.644 39.925-39.312 39.925-39.312s-3.22-9.022-7.083-12.244c-3.864-3.222-9.66-4.511-9.66-4.511z"/>
        <g fill="#464646">
            <path d="M70.907.34A27.09 27.09 0 0 0 51.64 8.361l-2.139 2.14-2.13-2.14C36.922-2.135 20.193-2.192 9.506 7.909c-.255.1-.487.252-.682.444v.008c-10.635 10.706-10.64 27.997.008 38.694l3.564 3.583 35.67 35.833a2.027 2.027 0 0 0 2.868 0l35.67-35.833 3.572-3.575h.008c10.635-10.707 10.648-27.998 0-38.694-2.875-2.888-6.243-4.964-9.82-6.293a2.027 2.027 0 0 0-1.014-.365h-.008C76.604.817 73.758.341 70.907.34zM28.093 4.358c5.922.002 11.846 2.295 16.402 6.872l3.572 3.575a2.027 2.027 0 0 0 2.867 0l3.572-3.575h.007c5.68-5.72 13.493-7.865 20.782-6.444l-5.386 5.398c-.035.03-.07.062-.103.095l-17.21 17.215a2.029 2.029 0 0 0-.134.15l-12.766 12.77c-3.153 3.154-3.153 8.321 0 11.476l8.6 8.607c3.152 3.155 8.324 3.155 11.476 0l12.901-12.91 17.202-17.224 4.19-4.193a23.31 23.31 0 0 1-6.756 18.032l-3.572 3.574-34.229 34.39-34.237-34.39-3.564-3.582A23.3 23.3 0 0 1 11.7 11.23c4.55-4.583 10.472-6.873 16.394-6.872zm51.605 1.76a23.345 23.345 0 0 1 7.611 5.112 23.34 23.34 0 0 1 5.916 10.05l-4.783 4.78-14.335-14.346 5.591-5.596zM28.212 8.456a19.264 19.264 0 0 0-16.679 9.638 19.296 19.296 0 0 0 0 19.276 2.03 2.03 0 1 0 3.516-2.03 15.22 15.22 0 0 1 0-15.217 15.19 15.19 0 0 1 13.163-7.609 2.027 2.027 0 0 0 1.78-3.052 2.027 2.027 0 0 0-1.78-1.006zm43.028 6.127l14.335 14.346-8 8.005-6.335 6.348L56.897 28.93 71.24 14.583zm-.174 6.586a2.027 2.027 0 0 0-1.26.595 2.03 2.03 0 0 0-.42.61v.008a2.026 2.026 0 0 0 3.287 2.25c.033-.035.065-.072.095-.11a2.03 2.03 0 0 0 .42-1.902 2.03 2.03 0 0 0-.515-.856 2.027 2.027 0 0 0-1.607-.595zm-5.528 5.739a2.026 2.026 0 0 0-1.157.332 2.028 2.028 0 0 0-.308.262 2.03 2.03 0 0 0 .617 3.29c.765.336 1.658.17 2.25-.42.033-.037.064-.074.095-.112a2.03 2.03 0 0 0-.095-2.758 2.028 2.028 0 0 0-.103-.103 2.027 2.027 0 0 0-.333-.23 2.027 2.027 0 0 0-.768-.253 2.026 2.026 0 0 0-.198-.008zm11.467 0a2.027 2.027 0 0 0-1.6 3.313 2.028 2.028 0 0 0 .397.372 2.027 2.027 0 0 0 .546.27 2.026 2.026 0 0 0 .198.055c.066.014.132.024.198.032s.132.014.198.016a2.027 2.027 0 0 0 1.465-.595c.033-.036.065-.073.095-.11a2.03 2.03 0 0 0 .468-1.705 2.03 2.03 0 0 0-.563-1.054 2.028 2.028 0 0 0-.103-.103 2.027 2.027 0 0 0-1.299-.491zM54.03 31.806l14.343 14.346-11.476 11.476c-1.613 1.615-4.12 1.615-5.734 0l-8.6-8.607c-1.614-1.615-1.614-4.124 0-5.739L54.03 31.806zm17.242.84a2.027 2.027 0 0 0-1.957 1.395v.008a2.03 2.03 0 0 0-.087.396 2.026 2.026 0 0 0 3.54 1.561V36a2.03 2.03 0 0 0 .5-1.3 2.03 2.03 0 0 0-.151-.785v-.008a2.03 2.03 0 0 0-1.845-1.26z"/>
        </g>
    </g>
</svg>
