<svg xmlns="http://www.w3.org/2000/svg" width="110" height="111" viewBox="0 0 110 111">
    <g fill="none" fill-rule="evenodd">
        <path fill="#5485F9" d="M41.438 84.63l-9.794 18.082s10.548 6.781 24.11 6.781c13.561 0 22.602-6.78 22.602-6.78l-9.794-18.836S61.78 86.89 55.753 86.89c-6.027 0-14.315-2.26-14.315-2.26zM41.438 28.877l-9.794-18.082s10.548-6.781 24.11-6.781c13.561 0 22.602 6.78 22.602 6.78L68.562 29.63s-6.781-3.014-12.809-3.014c-6.027 0-14.315 2.26-14.315 2.26zM83.63 42.438l18.082-9.794s6.781 10.548 6.781 24.11c0 13.561-6.78 22.602-6.78 22.602l-18.836-9.794s3.013-6.781 3.013-12.809c0-6.027-2.26-14.315-2.26-14.315zM24.863 42.438L6.781 32.644S0 43.192 0 56.754c0 13.561 6.78 22.602 6.78 22.602l18.836-9.794s-3.013-6.781-3.013-12.809c0-6.027 2.26-14.315 2.26-14.315z"/>
        <path fill="#464646" fill-rule="nonzero" stroke="#464646" d="M54.85 109.795c29.986 0 54.246-24.411 54.246-54.247S84.685 1.3 54.849 1.3C25.014 1.301.603 25.712.603 55.548s24.41 54.247 54.246 54.247zM8.588 33.699l16.726 9.342c-1.657 3.918-2.562 8.137-2.562 12.507 0 4.22.905 8.438 2.411 12.205L8.438 77.096c-3.013-6.48-4.67-13.863-4.67-21.397-.152-7.987 1.657-15.37 4.821-22zm22.15-23.357l9.343 16.576a32.497 32.497 0 0 0-13.41 13.26l-16.576-9.342c4.52-8.59 11.753-15.822 20.644-20.494zm24.11 15.973c16.124 0 29.233 13.11 29.233 29.233S70.972 84.78 54.85 84.78 25.616 71.67 25.616 55.548s13.11-29.233 29.233-29.233zM76.397 8.986l-9.342 16.726c-3.767-1.507-7.836-2.41-12.206-2.41-4.37 0-8.438.903-12.205 2.41L33.3 8.986c6.48-3.013 13.863-4.822 21.548-4.822 7.685 0 15.069 1.809 21.548 4.822zm23.507 22L83.33 40.33c-3.014-5.726-7.836-10.397-13.411-13.26l9.342-16.576c8.74 4.52 15.973 11.754 20.644 20.493zm1.658 46.11l-16.726-9.343c1.506-3.767 2.41-7.835 2.41-12.205s-.904-8.59-2.561-12.507L101.41 33.7c3.164 6.63 4.822 14.013 4.822 21.849a51.724 51.724 0 0 1-4.671 21.548zM79.41 100.603l-9.343-16.576c5.727-3.013 10.398-7.835 13.411-13.561l16.576 9.342c-4.671 8.74-11.904 15.973-20.644 20.795zm-46.26 1.356l9.342-16.726C46.26 86.89 50.48 87.795 55 87.795c4.52 0 8.589-.905 12.507-2.562l9.192 16.726c-6.63 3.164-14.014 4.822-21.699 4.822-7.685 0-15.22-1.658-21.85-4.822zM9.644 79.658l16.575-9.343c3.014 5.726 7.685 10.548 13.411 13.562l-9.342 16.575c-8.59-4.671-15.822-11.904-20.644-20.794z"/>
        <path stroke="#464646" stroke-linecap="round" stroke-linejoin="round" stroke-width="2.5" d="M80 17.033c6.5 3.5 11 8.5 14 14"/>
    </g>
</svg>
