<svg xmlns="http://www.w3.org/2000/svg" width="14" height="14" viewBox="0 0 14 14">
    <g fill="none" fill-rule="evenodd" transform="translate(0 -1)">
        <rect width="8.143" height="8.143" x=".5" y="6.357" stroke="#FFF" rx="2"/>
        <rect width="9.143" height="9.143" x="4.571" y="1.286" fill="#5485F9" rx="2"/>
        <g fill="#FFF">
            <path d="M10.618 3.562L5.984 3.49a.56.56 0 0 0-.6.6c.018.35.316.649.667.668h4.075v4.016c.018.35.317.649.667.667.35.02.619-.25.6-.6l-.07-4.575a.665.665 0 0 0-.072-.262.703.703 0 0 0-.374-.372.68.68 0 0 0-.259-.07z"/>
            <path fill-rule="nonzero" d="M9.566 4.576l-5.5 5.5a.571.571 0 1 0 .808.807l5.5-5.5a.571.571 0 1 0-.808-.807z"/>
        </g>
    </g>
</svg>
