<svg xmlns="http://www.w3.org/2000/svg" width="97" height="106" viewBox="0 0 97 106">
    <g fill="none" fill-rule="evenodd">
        <path fill="#5485F9" d="M37.637 85.24l-.394 17.33 22.972-1.198-.412-16.524z"/>
        <path fill="#464646" fill-rule="nonzero" d="M46.197 2.919l.005 9.12c0 1.258 1.022 2.28 2.281 2.28 1.26 0 2.28-1.02 2.279-2.278l-.005-9.12c0-1.259-1.022-2.28-2.28-2.28-1.26-.001-2.28 1.019-2.28 2.278zM16.245 13.982a2.26 2.26 0 0 0-1.603.676c-.89.89-.89 2.316.001 3.206l6.451 6.451c.89.891 2.317.892 3.206.002.89-.89.89-2.315-.001-3.206l-6.451-6.451a2.264 2.264 0 0 0-1.603-.678zm64.476.033a2.26 2.26 0 0 0-1.602.676l-6.445 6.444c-.89.89-.889 2.316.002 3.206.89.891 2.316.892 3.206.002l6.444-6.444c.89-.89.89-2.316-.001-3.206a2.264 2.264 0 0 0-1.604-.678zm-32.236 4.864c-15.08-.008-29.632 11.71-29.623 28.305.005 10.466 4.082 17.119 7.848 22.446 3.766 5.327 6.987 9.241 6.99 15.357l.007 13.679c.002 3.87 3.211 6.841 6.843 6.843l15.959.008c3.63.002 6.838-2.967 6.836-6.836L63.338 85c-.003-6.115 3.213-10.026 6.974-15.349 3.76-5.323 7.83-11.972 7.826-22.438-.009-16.596-14.572-28.327-29.653-28.335zm.003 4.56c12.722.006 25.083 9.858 25.09 23.772.005 9.328-3.328 14.645-6.972 19.803-3.272 4.632-6.966 9.216-7.687 15.706l-20.803-.01c-.727-6.492-4.426-11.08-7.703-15.714-3.648-5.162-6.987-10.482-6.992-19.81-.007-13.914 12.344-23.754 25.067-23.747zM2.902 46.214c-1.259 0-2.279 1.02-2.278 2.279 0 1.259 1.021 2.28 2.28 2.28l9.12.005c1.26 0 2.28-1.02 2.279-2.278 0-1.26-1.022-2.28-2.281-2.281l-9.12-.005zm82.075.041c-1.26 0-2.28 1.02-2.28 2.28.002 1.258 1.023 2.28 2.282 2.28l9.12.005c1.258 0 2.279-1.02 2.278-2.279 0-1.26-1.022-2.28-2.281-2.281l-9.12-.005zM38.26 87.27l20.518.01.002 4.56-20.518-.01-.002-4.56zm.004 9.12l20.519.01.001 2.28c0 1.37-1.099 2.279-2.279 2.278l-15.959-.008c-1.18 0-2.28-.91-2.28-2.28l-.002-2.28z"/>
        <path fill="#464646" d="M70.297 46.334c.629 6.01-1.334 12.372-5.259 16.175-.478.463-1.191.449-1.774.19a1.781 1.781 0 0 1-1.049-1.443c-.066-.635.254-1.153.728-1.63 3.172-3.2 4.306-8.17 3.809-12.92-.497-4.75-2.479-8.523-6.205-10.969a1.78 1.78 0 0 1-.337-3.083 1.78 1.78 0 0 1 1.786-.172c5.127 3.253 7.672 7.842 8.3 13.852z"/>
    </g>
</svg>
