<svg xmlns="http://www.w3.org/2000/svg" width="65" height="91" viewBox="0 0 65 91">
    <g fill="none" fill-rule="evenodd">
        <ellipse cx="32.5" cy="32.295" fill="#5485F9" rx="12.328" ry="12.25"/>
        <path fill="#464646" fill-rule="nonzero" d="M32.5 0C14.577 0 0 14.486 0 32.295 0 38.717 1.9 44.7 5.148 49.731l16.425 25.44 2.522 3.897S32.5 85.595 32.5 89.5c0 3.905 8.405-10.432 8.405-10.432l2.522-3.898 16.425-25.44A32.041 32.041 0 0 0 65 32.296C65 14.485 50.423 0 32.5 0zm28.017 32.295c0 5.549-1.643 10.692-4.447 15.035L32.5 83.836 8.93 47.33c-2.804-4.343-4.447-9.486-4.447-15.035C4.483 16.893 17 4.455 32.5 4.455s28.017 12.438 28.017 27.84zM32.5 16.705c-8.639 0-15.69 7.006-15.69 15.59 0 8.585 7.051 15.591 15.69 15.591s15.69-7.006 15.69-15.59c0-8.585-7.051-15.591-15.69-15.591zm0 4.454c6.216 0 11.207 4.96 11.207 11.136 0 6.177-4.991 11.137-11.207 11.137-6.216 0-11.207-4.96-11.207-11.137 0-6.176 4.991-11.136 11.207-11.136zm-8.405 57.91l6.514 10.092a2.245 2.245 0 0 0 1.891 1.031c.766 0 1.48-.389 1.891-1.031l6.514-10.093C42 77 30.99 85.853 32.5 85.422l-8.405-6.354z"/>
    </g>
</svg>
