<svg xmlns="http://www.w3.org/2000/svg" width="103" height="67" viewBox="0 0 103 67">
    <g fill="none" fill-rule="evenodd" stroke="#464646">
        <path fill="#5485F9" stroke-width="2.772" d="M24.398 8.8a6.07 6.07 0 0 0-4.29 1.763l-.476.47-.474-.47c-2.326-2.307-6.05-2.32-8.43-.099a.452.452 0 0 0-.152.098 5.981 5.981 0 0 0 .002 8.508l.793.788 7.942 7.878a.455.455 0 0 0 .638 0l7.942-7.878.795-.786a5.978 5.978 0 0 0 .002-8.507 6.047 6.047 0 0 0-2.187-1.383.455.455 0 0 0-.225-.08 6.149 6.149 0 0 0-1.88-.302z"/>
        <path fill="#464646" fill-rule="nonzero" stroke-width="2" d="M101.017 1.27H2.135a.87.87 0 0 0-.867.87v62.72c0 .48.388.87.867.87h98.882a.87.87 0 0 0 .867-.87V2.14a.87.87 0 0 0-.867-.87zm-63.34 22.648h62.415v8.71H37.677v-8.71zm0-1.742v-8.711h62.415v8.71H37.677zm62.26 12.195v8.711H3.003v-8.71h96.936zM3.003 44.824h96.936v8.711H3.002v-8.71zm97.09-33.102H37.677v-8.71h62.415v8.71zm-64.15-8.71v29.617H3.003V3.01h32.94zM3.003 63.988v-8.711h96.936v8.71H3.002z"/>
    </g>
</svg>
